<svg width="10" height="10" viewBox="0 0 10 10" fill="none" xmlns="http://www.w3.org/2000/svg">
<path d="M4.65751 8.15367C4.69573 8.20919 4.74688 8.25458 4.80654 8.28594C4.86621 8.3173 4.9326 8.33368 5 8.33368C5.06741 8.33368 5.1338 8.3173 5.19347 8.28594C5.25313 8.25458 5.30428 8.20919 5.3425 8.15367L9.09251 2.737C9.13591 2.67453 9.16137 2.60135 9.1661 2.52542C9.17084 2.44949 9.15468 2.37372 9.11937 2.30633C9.08407 2.23895 9.03097 2.18252 8.96585 2.14319C8.90073 2.10386 8.82608 2.08313 8.75001 2.08325H1.25C1.17411 2.08357 1.09973 2.10456 1.03487 2.14399C0.970014 2.18341 0.91713 2.23977 0.881908 2.307C0.846685 2.37423 0.830456 2.44979 0.834966 2.52556C0.839476 2.60132 0.864555 2.67442 0.907504 2.737L4.65751 8.15367Z" fill="black"/>
</svg>
