<svg width="30" height="30" viewBox="0 0 30 30" fill="none" xmlns="http://www.w3.org/2000/svg">
<path fill-rule="evenodd" clip-rule="evenodd" d="M10.9763 8.71122C11.0636 8.7983 11.1329 8.90176 11.1802 9.01565C11.2274 9.12955 11.2518 9.25165 11.2518 9.37497C11.2518 9.49828 11.2274 9.62038 11.1802 9.73428C11.1329 9.84818 11.0636 9.95163 10.9763 10.0387L6.01321 15L10.9763 19.9612C11.0635 20.0484 11.1326 20.1519 11.1798 20.2657C11.227 20.3796 11.2513 20.5017 11.2513 20.625C11.2513 20.7482 11.227 20.8703 11.1798 20.9842C11.1326 21.0981 11.0635 21.2016 10.9763 21.2887C10.8892 21.3759 10.7857 21.445 10.6718 21.4922C10.5579 21.5394 10.4359 21.5637 10.3126 21.5637C10.1893 21.5637 10.0673 21.5394 9.95337 21.4922C9.83948 21.445 9.736 21.3759 9.64884 21.2887L4.02384 15.6637C3.93653 15.5766 3.86727 15.4732 3.82 15.3593C3.77274 15.2454 3.74841 15.1233 3.74841 15C3.74841 14.8767 3.77274 14.7546 3.82 14.6407C3.86727 14.5268 3.93653 14.4233 4.02384 14.3362L9.64884 8.71122C9.73592 8.62391 9.83938 8.55464 9.95328 8.50738C10.0672 8.46012 10.1893 8.43579 10.3126 8.43579C10.4359 8.43579 10.558 8.46012 10.6719 8.50738C10.7858 8.55464 10.8893 8.62391 10.9763 8.71122Z" fill="black"/>
<path fill-rule="evenodd" clip-rule="evenodd" d="M4.6875 15C4.6875 14.7514 4.78627 14.5129 4.96209 14.3371C5.1379 14.1613 5.37636 14.0625 5.625 14.0625H25.3125C25.5611 14.0625 25.7996 14.1613 25.9754 14.3371C26.1512 14.5129 26.25 14.7514 26.25 15C26.25 15.2486 26.1512 15.4871 25.9754 15.6629C25.7996 15.8387 25.5611 15.9375 25.3125 15.9375H5.625C5.37636 15.9375 5.1379 15.8387 4.96209 15.6629C4.78627 15.4871 4.6875 15.2486 4.6875 15Z" fill="black"/>
</svg>
