<svg width="28" height="28" viewBox="0 0 28 28" fill="none" xmlns="http://www.w3.org/2000/svg">
<path fill-rule="evenodd" clip-rule="evenodd" d="M8.65934 23.1237C9.15167 23.1237 9.55184 23.5238 9.55184 24.0162C9.55184 24.5085 9.15167 24.9075 8.65934 24.9075C8.16701 24.9075 7.76801 24.5085 7.76801 24.0162C7.76801 23.5238 8.16701 23.1237 8.65934 23.1237Z" stroke="#393F42" stroke-width="1.5" stroke-linecap="round" stroke-linejoin="round"/>
<path fill-rule="evenodd" clip-rule="evenodd" d="M21.7872 23.1237C22.2795 23.1237 22.6797 23.5238 22.6797 24.0162C22.6797 24.5085 22.2795 24.9075 21.7872 24.9075C21.2948 24.9075 20.8947 24.5085 20.8947 24.0162C20.8947 23.5238 21.2948 23.1237 21.7872 23.1237Z" stroke="#393F42" stroke-width="1.5" stroke-linecap="round" stroke-linejoin="round"/>
<path d="M3.20819 3.79166L5.63486 4.21166L6.75836 17.5968C6.84936 18.6877 7.76052 19.5253 8.85486 19.5253H21.5855C22.6309 19.5253 23.5175 18.7577 23.668 17.7217L24.7752 10.0707C24.9117 9.12682 24.1802 8.28216 23.227 8.28216H6.02452" stroke="#393F42" stroke-width="1.5" stroke-linecap="round" stroke-linejoin="round"/>
<path d="M16.4796 12.5942H19.7148" stroke="#393F42" stroke-width="1.5" stroke-linecap="round" stroke-linejoin="round"/>
</svg>
