<svg width="41" height="40" viewBox="0 0 41 40" fill="none" xmlns="http://www.w3.org/2000/svg">
<rect x="0.5" width="40" height="40" rx="8" fill="#E9FFF8"/>
<path fill-rule="evenodd" clip-rule="evenodd" d="M25.2855 10H28.5521C29.9036 10 31 11.1059 31 12.4702V15.7641C31 17.1274 29.9036 18.2343 28.5521 18.2343H25.2855C23.933 18.2343 22.8366 17.1274 22.8366 15.7641V12.4702C22.8366 11.1059 23.933 10 25.2855 10Z" stroke="#67C4A7" stroke-width="1.5" stroke-linecap="round" stroke-linejoin="round"/>
<path fill-rule="evenodd" clip-rule="evenodd" d="M13.4489 10H16.7145C18.067 10 19.1634 11.1059 19.1634 12.4702V15.7641C19.1634 17.1274 18.067 18.2343 16.7145 18.2343H13.4489C12.0964 18.2343 11 17.1274 11 15.7641V12.4702C11 11.1059 12.0964 10 13.4489 10Z" stroke="#67C4A7" stroke-width="1.5" stroke-linecap="round" stroke-linejoin="round"/>
<path fill-rule="evenodd" clip-rule="evenodd" d="M13.4489 21.7657H16.7145C18.067 21.7657 19.1634 22.8716 19.1634 24.2369V27.5298C19.1634 28.8941 18.067 30 16.7145 30H13.4489C12.0964 30 11 28.8941 11 27.5298V24.2369C11 22.8716 12.0964 21.7657 13.4489 21.7657Z" stroke="#67C4A7" stroke-width="1.5" stroke-linecap="round" stroke-linejoin="round"/>
<path fill-rule="evenodd" clip-rule="evenodd" d="M25.2855 21.7657H28.5521C29.9036 21.7657 31 22.8716 31 24.2369V27.5298C31 28.8941 29.9036 30 28.5521 30H25.2855C23.933 30 22.8366 28.8941 22.8366 27.5298V24.2369C22.8366 22.8716 23.933 21.7657 25.2855 21.7657Z" stroke="#67C4A7" stroke-width="1.5" stroke-linecap="round" stroke-linejoin="round"/>
</svg>
