<svg width="27" height="27" viewBox="0 0 32 32" fill="none" xmlns="http://www.w3.org/2000/svg">
<path d="M26.0933 5.26664C23.5333 3.54664 20.6533 3.70664 18.36 4.91997L16 12H18.2133C19.1067 12 19.7467 12.8666 19.4933 13.72L17.0667 21.8133C16.9467 22.2 16.3733 22.08 16.4133 21.68L17.3333 13.3333H15.1067C14.2267 13.3333 13.5867 12.48 13.8267 11.64L15.4 6.15997C12.9333 3.8533 8.94665 3.0933 5.69332 5.38664C3.75999 6.75997 2.66665 8.9333 2.66665 11.32C2.65332 16.4 7.37332 20.2666 14.2133 26.3866C15.2267 27.2933 16.7733 27.3066 17.8 26.4C24.44 20.5066 29.6267 16.2933 29.32 10.9066C29.2 8.59997 28 6.55997 26.0933 5.26664Z" fill="#939393"/>
</svg>
