<svg width="29" height="29" viewBox="0 0 29 29" fill="none" xmlns="http://www.w3.org/2000/svg">
<path d="M25.375 13.4245V6.04159C25.375 5.40065 25.1204 4.78596 24.6672 4.33274C24.214 3.87953 23.5993 3.62492 22.9583 3.62492H17.9075C17.4 2.22325 16.0708 1.20825 14.5 1.20825C12.9292 1.20825 11.6 2.22325 11.0925 3.62492H6.04167C4.7125 3.62492 3.625 4.71242 3.625 6.04159V22.9583C3.625 23.5992 3.87961 24.2139 4.33283 24.6671C4.78604 25.1203 5.40073 25.3749 6.04167 25.3749H13.4246C14.9471 26.8733 17.0254 27.7916 19.3333 27.7916C24.0096 27.7916 27.7917 24.0095 27.7917 19.3333C27.7917 17.0253 26.8733 14.947 25.375 13.4245ZM14.5 3.62492C15.1646 3.62492 15.7083 4.16867 15.7083 4.83325C15.7083 5.49784 15.1646 6.04159 14.5 6.04159C13.8354 6.04159 13.2917 5.49784 13.2917 4.83325C13.2917 4.16867 13.8354 3.62492 14.5 3.62492ZM7.25 8.45825H21.75V10.8749H7.25V8.45825ZM10.9717 20.5416H7.25V18.1249H10.9717C10.9113 18.5237 10.875 18.9224 10.875 19.3333C10.875 19.7441 10.9113 20.1428 10.9717 20.5416ZM7.25 15.7083V13.2916H13.4246C12.6875 13.9803 12.1317 14.802 11.6967 15.7083H7.25ZM19.3333 25.3749C15.9983 25.3749 13.2917 22.6683 13.2917 19.3333C13.2917 15.9983 15.9983 13.2916 19.3333 13.2916C22.6683 13.2916 25.375 15.9983 25.375 19.3333C25.375 22.6683 22.6683 25.3749 19.3333 25.3749ZM19.9375 19.6353L23.3933 21.6774L22.4871 23.1516L18.125 20.5416V14.4999H19.9375V19.6353Z" fill="#E17C1E"/>
</svg>
