<svg width="24" height="26" viewBox="0 0 24 26" fill="none" xmlns="http://www.w3.org/2000/svg">
<path fill-rule="evenodd" clip-rule="evenodd" d="M8.68341 23.2333V19.6555C8.68339 18.7455 9.42529 18.006 10.3445 17.9999H13.7116C14.6352 17.9999 15.3839 18.7411 15.3839 19.6555V23.2445C15.3837 24.0171 16.0066 24.6486 16.7869 24.6667H19.0316C21.2693 24.6667 23.0833 22.8708 23.0833 20.6555V10.4775C23.0714 9.60601 22.658 8.78761 21.961 8.25525L14.284 2.13289C12.9391 1.06687 11.0272 1.06687 9.68231 2.13289L2.03902 8.26636C1.33929 8.79657 0.925274 9.61632 0.916656 10.4886V20.6555C0.916656 22.8708 2.73068 24.6667 4.96839 24.6667H7.21311C8.01274 24.6667 8.66096 24.025 8.66096 23.2333" fill="#E17C1E"/>
<path d="M8.68341 23.2333V19.6555C8.68339 18.7455 9.42529 18.006 10.3445 17.9999H13.7116C14.6352 17.9999 15.3839 18.7411 15.3839 19.6555V19.6555V23.2445C15.3837 24.0171 16.0066 24.6486 16.7869 24.6667H19.0316C21.2693 24.6667 23.0833 22.8708 23.0833 20.6555V20.6555V10.4775C23.0714 9.60601 22.658 8.78761 21.961 8.25525L14.284 2.13289C12.9391 1.06687 11.0272 1.06687 9.68231 2.13289L2.03902 8.26636C1.33929 8.79657 0.925274 9.61632 0.916656 10.4886V20.6555C0.916656 22.8708 2.73068 24.6667 4.96839 24.6667H7.21311C8.01274 24.6667 8.66096 24.025 8.66096 23.2333V23.2333" stroke="#E17C1E" stroke-width="1.5" stroke-linecap="round" stroke-linejoin="round"/>
</svg>
