<svg width="222" height="120" viewBox="0 0 222 120" fill="none" xmlns="http://www.w3.org/2000/svg">
<path d="M131.2 76.6667H136.733C139.533 76.6667 141.833 74.5 142.167 71.7667L147.667 16.8333H131V3.33333H124.433V16.8333H107.867L108.867 24.6333C114.567 26.2 119.9 29.0333 123.1 32.1667C127.9 36.9 131.2 41.8 131.2 49.8V76.6667ZM74.3333 73.3333V70H124.433V73.3333C124.433 75.1333 122.933 76.6667 121 76.6667H77.6667C75.8333 76.6667 74.3333 75.1333 74.3333 73.3333ZM124.433 50C124.433 23.3333 74.3333 23.3333 74.3333 50H124.433ZM74.3333 56.6667H124.333V63.3333H74.3333V56.6667Z" fill="#E17C1E"/>
<path d="M7.776 112V95.072H0.992V89.6H21.12V95.072H14.112V112H7.776ZM27.3535 112.288C25.9455 112.288 24.6762 111.915 23.5455 111.168C22.4362 110.4 21.5508 109.355 20.8895 108.032C20.2495 106.688 19.9295 105.163 19.9295 103.456C19.9295 101.707 20.2495 100.171 20.8895 98.848C21.5295 97.5253 22.4148 96.4907 23.5455 95.744C24.6762 94.976 25.9775 94.592 27.4495 94.592C28.2388 94.592 28.9642 94.6987 29.6255 94.912C30.2868 95.1253 30.8628 95.4347 31.3535 95.84C31.8442 96.2453 32.2708 96.704 32.6335 97.216C32.9962 97.728 33.2948 98.2827 33.5295 98.88L32.3135 98.816V94.944H38.1695V112H32.1855V107.84L33.4975 107.904C33.3055 108.523 33.0175 109.099 32.6335 109.632C32.2708 110.165 31.8228 110.635 31.2895 111.04C30.7562 111.424 30.1588 111.733 29.4975 111.968C28.8575 112.181 28.1428 112.288 27.3535 112.288ZM29.0495 107.392C29.7322 107.392 30.3188 107.243 30.8095 106.944C31.3002 106.624 31.6735 106.165 31.9295 105.568C32.2068 104.971 32.3455 104.267 32.3455 103.456C32.3455 102.624 32.2068 101.909 31.9295 101.312C31.6735 100.715 31.3002 100.267 30.8095 99.968C30.3188 99.648 29.7322 99.488 29.0495 99.488C28.3668 99.488 27.7802 99.648 27.2895 99.968C26.8202 100.267 26.4575 100.715 26.2015 101.312C25.9455 101.909 25.8175 102.624 25.8175 103.456C25.8175 104.267 25.9455 104.971 26.2015 105.568C26.4575 106.165 26.8202 106.624 27.2895 106.944C27.7802 107.243 28.3668 107.392 29.0495 107.392ZM48.4703 107.136L45.7823 103.168L53.6863 94.944H61.4623L48.4703 107.136ZM42.6463 112V88.32H48.6302V112H42.6463ZM54.2623 112L48.4383 104.064L52.6303 100.992L61.1423 112H54.2623ZM69.0573 112V95.072H62.2733V89.6H82.4013V95.072H75.3933V112H69.0573ZM85.8383 112V94.944H91.7903V112H85.8383ZM88.8143 91.712C87.7263 91.712 86.8836 91.4667 86.2863 90.976C85.6889 90.464 85.3903 89.7493 85.3903 88.832C85.3903 87.9787 85.6889 87.2853 86.2863 86.752C86.9049 86.1973 87.7476 85.92 88.8143 85.92C89.8809 85.92 90.7129 86.176 91.3103 86.688C91.9289 87.1787 92.2383 87.8933 92.2383 88.832C92.2383 89.6853 91.9289 90.3787 91.3103 90.912C90.6916 91.4453 89.8596 91.712 88.8143 91.712ZM102.283 107.136L99.5948 103.168L107.499 94.944H115.275L102.283 107.136ZM96.4588 112V88.32H102.443V112H96.4588ZM108.075 112L102.251 104.064L106.443 100.992L114.955 112H108.075ZM128.256 112V89.6H132.544L144.928 106.336H144.032C143.946 105.675 143.872 105.035 143.808 104.416C143.744 103.776 143.68 103.136 143.616 102.496C143.573 101.835 143.53 101.163 143.488 100.48C143.466 99.776 143.445 99.04 143.424 98.272C143.402 97.4827 143.392 96.6293 143.392 95.712V89.6H148.096V112H143.744L131.104 95.104L132.32 95.136C132.426 96.2453 132.512 97.1947 132.576 97.984C132.661 98.752 132.725 99.424 132.768 100C132.81 100.576 132.842 101.077 132.864 101.504C132.906 101.931 132.928 102.336 132.928 102.72C132.949 103.104 132.96 103.509 132.96 103.936V112H128.256ZM155.64 119.36L159.352 110.656L159.416 113.28L151.16 95.072H156.312L160.44 104.832C160.611 105.195 160.771 105.621 160.92 106.112C161.091 106.581 161.229 107.04 161.336 107.488L160.568 107.808C160.696 107.445 160.845 107.029 161.016 106.56C161.187 106.091 161.357 105.589 161.528 105.056L165.08 95.072H170.264L163.16 112L160.248 119.36H155.64ZM178.733 112.32C177.325 112.32 176.056 111.936 174.925 111.168C173.794 110.4 172.898 109.355 172.237 108.032C171.576 106.709 171.245 105.195 171.245 103.488C171.245 101.781 171.576 100.277 172.237 98.976C172.92 97.6533 173.837 96.6187 174.989 95.872C176.141 95.104 177.453 94.72 178.925 94.72C179.757 94.72 180.514 94.848 181.197 95.104C181.901 95.3387 182.509 95.6693 183.021 96.096C183.554 96.5227 184.002 97.0133 184.365 97.568C184.728 98.1227 184.984 98.72 185.133 99.36L184.173 99.2V95.072H188.685V112H184.109V107.936L185.133 107.84C184.962 108.437 184.685 109.003 184.301 109.536C183.917 110.069 183.437 110.549 182.861 110.976C182.306 111.381 181.677 111.712 180.973 111.968C180.269 112.203 179.522 112.32 178.733 112.32ZM179.981 108.384C180.834 108.384 181.581 108.181 182.221 107.776C182.861 107.371 183.352 106.805 183.693 106.08C184.056 105.333 184.237 104.469 184.237 103.488C184.237 102.528 184.056 101.685 183.693 100.96C183.352 100.235 182.861 99.6693 182.221 99.264C181.581 98.8373 180.834 98.624 179.981 98.624C179.149 98.624 178.413 98.8373 177.773 99.264C177.154 99.6693 176.664 100.235 176.301 100.96C175.938 101.685 175.757 102.528 175.757 103.488C175.757 104.469 175.938 105.333 176.301 106.08C176.664 106.805 177.154 107.371 177.773 107.776C178.413 108.181 179.149 108.384 179.981 108.384ZM193.209 112V95.072H197.593L197.689 98.304L197.017 98.432C197.251 97.8773 197.561 97.376 197.945 96.928C198.329 96.48 198.777 96.096 199.289 95.776C199.822 95.456 200.377 95.2107 200.953 95.04C201.529 94.848 202.105 94.752 202.681 94.752C203.555 94.752 204.345 94.8907 205.049 95.168C205.753 95.4453 206.35 95.8827 206.841 96.48C207.331 97.056 207.715 97.824 207.993 98.784L207.289 98.72L207.513 98.208C207.79 97.696 208.142 97.2373 208.569 96.832C208.995 96.4053 209.475 96.0427 210.009 95.744C210.542 95.424 211.097 95.1787 211.673 95.008C212.249 94.8373 212.814 94.752 213.369 94.752C214.691 94.752 215.79 95.0187 216.665 95.552C217.539 96.064 218.19 96.8427 218.617 97.888C219.065 98.9333 219.289 100.213 219.289 101.728V112H214.745V102.048C214.745 101.28 214.638 100.651 214.425 100.16C214.211 99.6693 213.902 99.3067 213.497 99.072C213.091 98.816 212.569 98.688 211.929 98.688C211.438 98.688 210.979 98.7733 210.553 98.944C210.147 99.0933 209.785 99.3173 209.465 99.616C209.166 99.8933 208.931 100.224 208.761 100.608C208.59 100.992 208.505 101.419 208.505 101.888V112H203.961V102.016C203.961 101.312 203.843 100.715 203.609 100.224C203.395 99.712 203.086 99.328 202.681 99.072C202.275 98.816 201.774 98.688 201.177 98.688C200.686 98.688 200.227 98.7733 199.801 98.944C199.395 99.0933 199.043 99.3173 198.745 99.616C198.446 99.8933 198.201 100.224 198.009 100.608C197.838 100.992 197.753 101.408 197.753 101.856V112H193.209Z" fill="#E17C1E"/>
</svg>
