<svg width="216" height="117" viewBox="0 0 216 117" fill="none" xmlns="http://www.w3.org/2000/svg">
<path d="M115.84 19.3555C112.125 16.1411 108.894 12.9248 108.274 12.2169L108.142 12.2174C107.527 12.8979 104.322 16.1718 100.632 19.4154C69.0091 49.2144 105.853 69.0891 105.853 69.0891L106.162 69.2494C106.439 72.3158 107.162 76.769 107.162 76.769L109.895 76.7582C109.895 76.7582 110.539 72.332 110.791 69.2311L111.099 69.0362C111.099 69.0362 147.697 48.9046 115.84 19.3555ZM108.364 68.6272C107.589 68.1653 106.879 67.649 106.242 67.0856L108.231 34.7878L110.341 67.0695C109.749 67.6321 109.087 68.1535 108.364 68.6272Z" fill="#E17C1E"/>
<g clip-path="url(#clip0_19_2852)">
<path d="M55.8496 24.7993C50.1127 24.4566 44.7176 23.8614 43.5947 23.6831L43.5015 23.752C43.7228 24.5502 44.6113 28.5196 45.1266 32.7187C51.477 70.1162 96.7806 65.0516 96.7806 65.0516L97.1545 65.0045C100.311 67.0242 105.122 69.7908 105.122 69.7908L107.049 68.3676C107.049 68.3676 103.233 64.9121 100.418 62.5942L100.448 62.2973C100.448 62.2973 106.957 29.1417 55.8496 24.7993ZM98.1146 63.4253C97.1198 63.5006 96.1175 63.5046 95.1222 63.4371L65.353 39.6258L98.0127 61.3023C98.1358 62.006 98.1699 62.7166 98.1146 63.4253Z" fill="#E17C1E"/>
</g>
<g clip-path="url(#clip1_19_2852)">
<path d="M167.255 32.796C167.738 28.5929 168.564 24.6397 168.81 23.8167L168.716 23.7486C167.626 23.9127 162.204 24.5734 156.47 24.9613C105.399 29.7061 112.2 62.8777 112.2 62.8777L112.263 63.1514C109.498 65.4684 105.709 68.9995 105.709 68.9995L107.647 70.4075C107.647 70.4075 112.375 67.6033 115.546 65.5359L115.951 65.5572C115.951 65.5572 161.2 70.2423 167.255 32.796ZM114.417 63.8508C114.317 63.1223 114.314 62.3882 114.408 61.6589L146.99 39.7941L117.316 63.7709C116.355 63.8628 115.384 63.8895 114.417 63.8508Z" fill="#E17C1E"/>
</g>
<path d="M12.1459 109.04L12.3204 92.1127L5.53646 92.0875L5.59288 86.6158L25.7207 86.6904L25.6643 92.1621L18.6564 92.1361L18.4819 109.063L12.1459 109.04ZM31.7203 109.4C30.3123 109.395 29.0468 109.017 27.9239 108.266C26.8225 107.494 25.9479 106.446 25.3002 105.121C24.6741 103.774 24.3698 102.248 24.3874 100.541C24.4054 98.792 24.7413 97.2573 25.3949 95.9371C26.0485 94.6168 26.9445 93.5855 28.0829 92.8431C29.2215 92.0793 30.5267 91.7001 31.9987 91.7056C32.7881 91.7085 33.5123 91.8179 34.1714 92.0337C34.8305 92.2494 35.4034 92.5609 35.8898 92.968C36.3763 93.3751 36.7983 93.8354 37.1556 94.3487C37.513 94.862 37.806 95.4177 38.0345 96.0159L36.8192 95.9474L36.8591 92.0756L42.715 92.0973L42.5392 109.152L36.5552 109.13L36.5981 104.97L37.9095 105.039C37.7111 105.657 37.4171 106.232 37.0276 106.764C36.6595 107.296 36.2066 107.764 35.6691 108.167C35.1318 108.549 34.5313 108.856 33.8676 109.088C33.2254 109.299 32.5096 109.403 31.7203 109.4ZM33.4668 104.511C34.1494 104.513 34.7376 104.366 35.2314 104.069C35.7253 103.751 36.1034 103.294 36.3655 102.698C36.649 102.101 36.795 101.398 36.8033 100.587C36.8119 99.7553 36.6806 99.0402 36.4094 98.4419C36.1596 97.8436 35.7909 97.3942 35.3033 97.0938C34.8159 96.772 34.2309 96.6098 33.5482 96.6073C32.8656 96.6047 32.2773 96.7626 31.7833 97.0807C31.3109 97.3776 30.9436 97.8243 30.6815 98.4206C30.4193 99.017 30.2839 99.7311 30.2754 100.563C30.267 101.374 30.3877 102.078 30.6376 102.676C30.8874 103.275 31.2454 103.735 31.7114 104.056C32.199 104.357 32.7841 104.508 33.4668 104.511ZM52.89 104.327L50.2429 100.349L58.2317 92.1548L66.0076 92.1837L52.89 104.327ZM47.0159 109.169L47.26 85.4903L53.244 85.5125L52.9999 109.191L47.0159 109.169ZM58.6318 109.212L52.8897 101.255L57.1133 98.1986L65.5118 109.238L58.6318 109.212ZM73.4267 109.267L73.6013 92.3398L66.8173 92.3147L66.8737 86.843L87.0016 86.9176L86.9452 92.3893L79.9372 92.3633L79.7627 109.29L73.4267 109.267ZM90.2076 109.329L90.3835 92.274L96.3354 92.2961L96.1596 109.351L90.2076 109.329ZM93.3928 89.0532C92.3048 89.0492 91.4646 88.8007 90.8724 88.3079C90.2803 87.7937 89.989 87.078 89.9985 86.1607C90.0073 85.3074 90.3131 84.6152 90.9159 84.0841C91.5403 83.5318 92.3858 83.2576 93.4525 83.2615C94.5191 83.2655 95.3485 83.5246 95.9405 84.0387C96.5541 84.5317 96.8561 85.2475 96.8464 86.1861C96.8376 87.0394 96.5212 87.7315 95.897 88.2625C95.2728 88.7935 94.4381 89.0571 93.3928 89.0532ZM106.702 104.526L104.055 100.549L112.044 92.3543L119.82 92.3831L106.702 104.526ZM100.828 109.368L101.072 85.6897L107.056 85.7119L106.812 109.391L100.828 109.368ZM112.444 109.412L106.702 101.454L110.925 98.3981L119.324 109.437L112.444 109.412ZM139.949 109.833C138.477 109.828 137.146 109.652 135.955 109.307C134.785 108.94 133.745 108.424 132.835 107.759C131.924 107.073 131.111 106.27 130.395 105.35L133.73 101.619C134.782 103.052 135.839 104.016 136.9 104.51C137.983 105.005 139.101 105.254 140.253 105.259C140.829 105.261 141.352 105.188 141.823 105.041C142.294 104.893 142.659 104.681 142.918 104.405C143.177 104.107 143.308 103.745 143.313 103.318C143.316 102.998 143.234 102.71 143.066 102.453C142.919 102.197 142.708 101.972 142.433 101.779C142.157 101.586 141.828 101.414 141.446 101.263C141.064 101.091 140.66 100.951 140.234 100.843C139.809 100.713 139.373 100.605 138.925 100.518C137.691 100.236 136.617 99.8906 135.704 99.4819C134.791 99.0732 134.028 98.5797 133.415 98.0014C132.824 97.4019 132.383 96.7283 132.092 95.9806C131.801 95.2115 131.661 94.3577 131.67 93.419C131.681 92.4164 131.914 91.5 132.371 90.6697C132.849 89.8181 133.475 89.0951 134.249 88.5007C135.045 87.885 135.956 87.419 136.984 87.1028C138.011 86.7653 139.08 86.5986 140.189 86.6027C141.661 86.6082 142.918 86.7728 143.96 87.0967C145.024 87.3993 145.926 87.84 146.666 88.4187C147.429 88.9975 148.072 89.6932 148.597 90.5058L145.204 93.7252C144.761 93.1689 144.275 92.7084 143.746 92.3438C143.238 91.9793 142.686 91.6999 142.09 91.5057C141.516 91.3116 140.92 91.2134 140.301 91.2111C139.661 91.2087 139.106 91.292 138.635 91.4609C138.185 91.6086 137.831 91.8312 137.572 92.1289C137.313 92.4053 137.182 92.7462 137.177 93.1515C137.174 93.5141 137.277 93.8238 137.488 94.0806C137.698 94.3374 137.984 94.5731 138.345 94.7878C138.705 94.9811 139.119 95.1533 139.587 95.3044C140.055 95.4341 140.545 95.5426 141.056 95.6298C142.227 95.8688 143.28 96.182 144.214 96.5695C145.17 96.957 145.987 97.4294 146.664 97.9866C147.362 98.5438 147.889 99.2071 148.243 99.9764C148.62 100.724 148.803 101.6 148.792 102.602C148.776 104.16 148.379 105.481 147.599 106.566C146.842 107.63 145.799 108.447 144.47 109.018C143.163 109.568 141.656 109.84 139.949 109.833ZM152.266 109.559L152.51 85.8804L157.534 85.899L157.429 96.0425L156.402 96.4227C156.644 95.6556 157.067 94.9638 157.671 94.3474C158.296 93.7097 159.037 93.2005 159.895 92.8197C160.752 92.4389 161.65 92.2502 162.589 92.2537C163.869 92.2584 164.943 92.5291 165.812 93.0656C166.682 93.5808 167.335 94.3619 167.772 95.4088C168.21 96.4344 168.421 97.6939 168.405 99.1871L168.298 109.619L163.146 109.599L163.249 99.584C163.256 98.9014 163.166 98.3357 162.979 97.887C162.791 97.4383 162.496 97.1066 162.093 96.8918C161.711 96.6557 161.232 96.5472 160.656 96.5664C160.208 96.5648 159.791 96.6379 159.406 96.7858C159.021 96.9124 158.688 97.1138 158.408 97.3901C158.128 97.6451 157.901 97.9429 157.726 98.2836C157.574 98.6243 157.495 98.9974 157.491 99.4027L157.386 109.578L154.858 109.569C154.261 109.567 153.749 109.565 153.322 109.563C152.895 109.561 152.543 109.56 152.266 109.559ZM180.575 109.984C178.804 109.978 177.23 109.588 175.851 108.815C174.493 108.042 173.416 106.992 172.619 105.667C171.844 104.341 171.464 102.825 171.482 101.119C171.5 99.4119 171.91 97.8988 172.713 96.5791C173.537 95.2595 174.636 94.2183 176.009 93.4554C177.404 92.6926 178.986 92.3145 180.757 92.321C182.528 92.3276 184.092 92.7174 185.449 93.4904C186.828 94.2635 187.905 95.3128 188.681 96.6383C189.456 97.9638 189.836 99.4799 189.818 101.186C189.8 102.893 189.39 104.406 188.587 105.726C187.784 107.046 186.685 108.087 185.291 108.85C183.918 109.612 182.346 109.991 180.575 109.984ZM180.62 105.568C181.388 105.571 182.073 105.382 182.674 105C183.276 104.618 183.75 104.097 184.099 103.437C184.447 102.777 184.615 102.021 184.602 101.167C184.632 100.314 184.48 99.556 184.145 98.8935C183.811 98.2096 183.347 97.6745 182.754 97.2883C182.161 96.9022 181.48 96.7076 180.712 96.7048C179.944 96.7019 179.249 96.8914 178.626 97.273C178.025 97.6548 177.55 98.1864 177.201 98.8677C176.853 99.5278 176.685 100.284 176.698 101.138C176.668 101.991 176.82 102.749 177.155 103.411C177.489 104.074 177.953 104.598 178.546 104.985C179.161 105.371 179.852 105.565 180.62 105.568ZM193.006 116.75L193.253 92.7193L198.117 92.7374L198.27 96.5459L197.313 96.2543C197.47 95.5509 197.839 94.9123 198.421 94.3385C199.003 93.7646 199.733 93.3087 200.611 92.9706C201.511 92.6113 202.451 92.4334 203.433 92.4371C204.883 92.4424 206.17 92.8312 207.293 93.6034C208.416 94.3542 209.29 95.3921 209.917 96.717C210.565 98.0208 210.88 99.5366 210.862 101.264C210.844 102.971 210.498 104.484 209.823 105.805C209.169 107.125 208.263 108.167 207.103 108.93C205.964 109.673 204.659 110.041 203.187 110.036C202.227 110.032 201.312 109.848 200.441 109.482C199.57 109.116 198.839 108.622 198.248 108.002C197.657 107.381 197.269 106.707 197.085 105.981L198.273 105.538L198.158 116.769L193.006 116.75ZM201.984 105.712C202.752 105.714 203.426 105.536 204.005 105.175C204.585 104.793 205.039 104.272 205.365 103.612C205.692 102.952 205.86 102.163 205.87 101.246C205.879 100.35 205.727 99.5708 205.414 98.9083C205.101 98.2245 204.658 97.7002 204.086 97.3354C203.535 96.9494 202.865 96.7549 202.076 96.752C201.287 96.7491 200.602 96.9278 200.022 97.2884C199.443 97.6489 198.989 98.1698 198.662 98.8513C198.335 99.5327 198.167 100.321 198.158 101.217C198.148 102.135 198.3 102.925 198.613 103.587C198.927 104.25 199.369 104.774 199.941 105.16C200.514 105.525 201.194 105.709 201.984 105.712Z" fill="#E17C1E"/>
<defs>
<clipPath id="clip0_19_2852">
<rect width="51.7583" height="95.9685" fill="white" transform="matrix(0.804402 -0.594086 0.809055 0.587732 15.5183 31.3794)"/>
</clipPath>
<clipPath id="clip1_19_2852">
<rect width="51.7583" height="95.9684" fill="white" transform="matrix(0.809055 0.587732 -0.804402 0.594086 158.373 3.27036)"/>
</clipPath>
</defs>
</svg>
