<svg width="300" height="190" viewBox="0 0 300 190" fill="none" xmlns="http://www.w3.org/2000/svg">
<g clip-path="url(#clip0_1_269)">
<path d="M195.794 82.9621C195.448 84.711 195.034 86.442 194.55 88.1553C194.498 88.3542 194.439 88.5502 194.38 88.7491H187.655C187.082 88.7497 186.533 88.9689 186.128 89.3586C185.723 89.7482 185.495 90.2765 185.495 90.8276V109.272C185.291 109.638 185.084 110 184.877 110.362C183.809 112.233 182.698 114.083 181.562 115.909C163.042 145.588 137.211 170.424 106.35 188.224L108.177 184.257C107.507 184.213 106.834 184.168 106.165 184.124C91.5815 183.165 76.9488 182.102 62.7081 178.949C47.81 175.65 33.2361 169.928 21.5602 160.441C9.8811 150.952 1.31949 137.4 0.131188 122.738C-0.265045 117.699 0.264688 112.632 1.69609 107.77C4.43362 98.411 10.4152 89.9903 19.0448 85.0079C32.6003 77.184 50.2823 78.7784 64.5723 85.287C78.8593 91.7926 90.4889 102.562 101.844 113.144C90.3794 94.2311 74.4171 78.2023 55.2668 66.373C48.9211 62.4655 42.1866 58.9855 36.7916 53.923C31.3996 48.8634 27.4212 41.7699 28.375 34.5814C29.4582 26.4279 36.3996 20.24 43.3532 15.4684C46.131 13.5622 48.9983 11.7539 51.9551 10.0911C60.2976 5.38787 69.3223 1.83964 78.8531 0.524265C91.7636 -1.26024 105.708 1.4477 115.606 9.61903C126.757 18.8266 131.331 33.6758 130.896 47.8806C137.766 38.2721 148.362 30.9173 160.328 30.6056C172.751 30.2849 184.56 37.8357 190.782 48.1864C197.001 58.5342 198.118 71.2188 195.794 82.9621Z" fill="#E6E6E6"/>
<path d="M117.196 122.867C124.472 122.251 131.193 121.53 138.244 119.611C145.078 117.751 151.655 114.636 156.52 109.551C161.753 104.081 164.578 96.9773 166.571 89.906C167.682 85.9634 168.595 81.9657 169.456 77.9666C170.391 73.6276 171.222 69.2695 171.948 64.8921C173.394 56.1789 174.426 47.4143 175.045 38.5984C175.119 37.5283 175.188 36.4578 175.25 35.3869C175.289 34.7264 174.221 34.7285 174.182 35.3869C173.674 44.0769 172.76 52.7329 171.44 61.3551C170.137 69.8263 168.471 78.2609 166.356 86.5803C164.565 93.6281 162.245 100.786 157.65 106.653C153.342 112.155 147.119 115.75 140.4 117.9C133.563 120.087 126.354 120.96 119.209 121.61C118.332 121.69 118.073 121.765 117.196 121.84C116.517 121.897 116.51 122.925 117.196 122.867Z" fill="white"/>
<path d="M2.31215 108.528C11.4923 109.018 20.579 110.558 29.3802 113.117C38.1852 115.67 46.6465 119.213 54.5888 123.673C62.2631 127.986 69.3875 133.146 75.8171 139.049C82.0571 144.782 87.6184 151.161 92.3995 158.071C97.2023 164.998 101.183 172.421 104.266 180.201C104.642 181.154 105.004 182.111 105.352 183.073C105.577 183.693 106.609 183.426 106.382 182.8C103.497 174.855 99.6949 167.247 95.0458 160.119C90.3977 152.99 84.9426 146.378 78.7804 140.405C72.5195 134.34 65.5515 128.99 58.0149 124.463C42.1905 114.98 24.2537 109.243 5.6774 107.724C4.55685 107.633 3.4351 107.559 2.31217 107.501C1.62544 107.464 1.62754 108.492 2.31215 108.528Z" fill="white"/>
<path d="M52.2433 11.2954C58.1129 13.0913 63.6765 15.7068 68.756 19.0583C73.9464 22.5062 78.6801 26.5505 82.8522 31.1015C87.2489 35.889 91.1577 41.0714 94.525 46.5775C98.0966 52.3911 101.199 58.4597 103.806 64.73C106.49 71.1675 108.747 77.762 110.565 84.474C112.412 91.2656 113.855 98.153 114.886 105.103C115.913 111.979 116.534 118.905 116.747 125.849C116.961 132.488 116.757 139.134 116.136 145.75C115.567 151.922 114.529 158.046 113.03 164.072C111.698 169.514 109.822 174.82 107.426 179.915C106.872 181.071 106.283 182.211 105.66 183.335C105.337 183.919 106.259 184.438 106.582 183.854C109.229 178.988 111.343 173.87 112.889 168.583C114.624 162.698 115.881 156.692 116.65 150.62C117.502 144.031 117.918 137.398 117.893 130.759C117.877 123.784 117.446 116.816 116.6 109.888C115.754 102.875 114.498 95.9126 112.838 89.0349C111.182 82.146 109.081 75.3631 106.548 68.7256C104.106 62.3001 101.182 56.0537 97.8002 50.0356C94.5788 44.2929 90.8247 38.8419 86.5837 33.7491C82.5561 28.9 77.9579 24.5162 72.8812 20.6856C67.9859 17.0029 62.5764 14.001 56.8118 11.7682C55.4031 11.2288 53.9749 10.741 52.5272 10.3048C51.8701 10.1059 51.5889 11.0974 52.2433 11.2954Z" fill="white"/>
<path d="M115.587 190C157.775 190 191.976 188.671 191.976 187.031C191.976 185.391 157.775 184.062 115.587 184.062C73.399 184.062 39.1987 185.391 39.1987 187.031C39.1987 188.671 73.399 190 115.587 190Z" fill="#E6E6E6"/>
<path d="M183.077 94.0312C183.039 94.1914 183.015 94.3543 183.004 94.5182L169.745 101.877L166.522 100.092L163.087 104.419L169.981 109.146L185.107 97.666C185.724 97.8856 186.396 97.9193 187.033 97.7627C187.67 97.606 188.243 97.2665 188.675 96.7891C189.107 96.3117 189.377 95.7192 189.45 95.0903C189.524 94.4614 189.396 93.8259 189.085 93.2685C188.774 92.711 188.293 92.2579 187.708 91.9694C187.122 91.6809 186.459 91.5708 185.807 91.6536C185.155 91.7364 184.545 92.0082 184.057 92.4329C183.569 92.8577 183.228 93.4151 183.077 94.0312Z" fill="#FFB8B8"/>
<path d="M152.882 98.5457L163.322 105.704L167.991 100.072L157.843 92.2383C157.406 91.9013 156.903 91.6536 156.363 91.5103C155.823 91.3671 155.259 91.3313 154.705 91.4052C154.15 91.4791 153.617 91.6612 153.138 91.9402C152.66 92.2192 152.245 92.5893 151.92 93.0278C151.287 93.8823 151.033 94.9436 151.213 95.9785C151.394 97.0133 151.994 97.9367 152.882 98.5457Z" fill="#E17C1E"/>
<path d="M131.332 180.22L134.993 181.142L140.434 167.999L135.032 166.637L131.332 180.22Z" fill="#FFB8B8"/>
<path d="M141.161 186.192L129.658 183.292L130.822 179.016L137.881 180.795C139.06 181.092 140.068 181.828 140.683 182.84C141.298 183.852 141.47 185.058 141.161 186.192Z" fill="#2F2E41"/>
<path d="M163.87 182.727L167.595 182.087L166.801 167.96L161.304 168.905L163.87 182.727Z" fill="#FFB8B8"/>
<path d="M175.397 184.18L163.69 186.192L162.882 181.84L170.066 180.606C170.66 180.504 171.269 180.515 171.858 180.64C172.448 180.764 173.006 180.999 173.501 181.331C173.996 181.663 174.418 182.085 174.743 182.574C175.069 183.063 175.291 183.608 175.397 184.18Z" fill="#2F2E41"/>
<path d="M156.536 78.8357C157.453 79.0506 158.2 79.9504 158.649 80.9928C159.062 82.0876 159.342 83.225 159.483 84.382C159.836 86.5367 160.174 88.8693 159.445 90.865C158.591 93.2039 156.315 94.429 154.341 93.8533C152.366 93.2776 150.796 91.1166 150.26 88.6292C149.771 86.1158 150.086 83.519 151.162 81.1811C151.723 79.9527 152.496 78.8194 153.523 78.2652C154.027 77.972 154.628 77.8733 155.204 77.9889C155.781 78.1044 156.291 78.4257 156.631 78.8881" fill="#2F2E41"/>
<path d="M161.729 117.848L168.821 178.953L162.964 181.092L152.161 140.117L137.122 177.582L130.711 177.925C130.711 177.925 139.507 119.629 146.026 118.304L161.729 117.848Z" fill="#2F2E41"/>
<path d="M155.772 86.6338C159.959 86.6338 163.353 83.3688 163.353 79.3411C163.353 75.3134 159.959 72.0483 155.772 72.0483C151.586 72.0483 148.192 75.3134 148.192 79.3411C148.192 83.3688 151.586 86.6338 155.772 86.6338Z" fill="#FFB8B8"/>
<path d="M159.026 89.6933L150.834 88.6654C150.834 88.6654 145.492 94.833 145.848 105.455C146.204 116.077 144.957 119.332 144.957 119.332L162.038 119.629C159.569 116.363 169.896 97.6042 159.026 89.6933Z" fill="#E17C1E"/>
<path d="M163.426 121.114C163.256 121.115 163.085 121.129 162.917 121.156L152.437 110.423L153.505 106.997L148.341 104.77L145.135 112.308L160.213 123.846C160.132 124.474 160.252 125.111 160.556 125.672C160.86 126.233 161.335 126.692 161.917 126.987C162.499 127.282 163.16 127.4 163.813 127.324C164.466 127.249 165.08 126.984 165.573 126.565C166.066 126.146 166.415 125.593 166.572 124.978C166.73 124.364 166.69 123.718 166.457 123.126C166.224 122.534 165.809 122.025 165.268 121.665C164.727 121.306 164.084 121.113 163.426 121.114Z" fill="#FFB8B8"/>
<path d="M151.948 93.869L147.094 105.284L153.861 108.368L159.466 97.071C159.707 96.585 159.842 96.0568 159.864 95.5187C159.885 94.9805 159.792 94.4439 159.591 93.9415C159.389 93.4392 159.083 92.9817 158.691 92.5972C158.299 92.2127 157.83 91.9092 157.312 91.7053C156.812 91.5085 156.276 91.4085 155.736 91.4107C155.196 91.413 154.662 91.5176 154.164 91.7185C153.666 91.9194 153.214 92.2128 152.834 92.5817C152.454 92.9507 152.153 93.3881 151.948 93.869Z" fill="#E17C1E"/>
<path d="M153.79 85.9712C154.977 85.312 155.104 83.7218 154.943 82.4117C154.781 81.1017 154.512 79.6413 155.312 78.5701C156.267 77.2917 158.187 77.2663 159.823 77.2246C161.459 77.1828 163.451 76.722 163.875 75.2012C164.155 74.1964 163.556 73.1181 162.696 72.4873C161.836 71.8565 160.76 71.5777 159.714 71.3126C157.375 70.7198 154.959 70.1219 152.564 70.4478C150.192 70.7705 148.047 71.9789 146.593 73.8116C145.14 75.6442 144.495 77.9537 144.798 80.2403C145.186 83.1653 145.748 84.4426 145.379 85.7322C144.691 88.1344 141.727 89.6776 141.668 92.1685C141.622 94.1169 143.411 95.62 145.156 96.6093C146.541 97.3941 148.035 98.0599 149.63 98.2437C151.226 98.4274 152.944 98.0756 154.132 97.0353C155.665 95.6935 156.044 93.4518 155.605 91.5034C155.165 89.5549 154.038 87.8246 152.922 86.1442" fill="#2F2E41"/>
<path d="M297.222 88.1552H187.655C186.918 88.1563 186.213 88.4382 185.692 88.9391C185.171 89.44 184.878 90.1191 184.877 90.8276V158.526C184.878 159.234 185.171 159.914 185.692 160.415C186.213 160.915 186.918 161.197 187.655 161.198H297.222C297.959 161.197 298.664 160.915 299.185 160.415C299.706 159.914 299.999 159.234 300 158.526V90.8276C299.999 90.1191 299.706 89.44 299.185 88.9391C298.664 88.4382 297.959 88.1563 297.222 88.1552ZM299.383 158.526C299.382 159.077 299.154 159.605 298.749 159.995C298.344 160.385 297.795 160.604 297.222 160.605H187.655C187.082 160.604 186.533 160.385 186.128 159.995C185.723 159.605 185.495 159.077 185.494 158.526V90.8276C185.495 90.2765 185.723 89.7482 186.128 89.3585C186.533 88.9689 187.082 88.7497 187.655 88.7491H297.222C297.795 88.7497 298.344 88.9689 298.749 89.3585C299.154 89.7482 299.382 90.2765 299.383 90.8276V158.526Z" fill="#3F3D56"/>
<path d="M211.042 121.855H193.758C193.063 121.854 192.396 121.588 191.904 121.115C191.412 120.641 191.136 120 191.135 119.331V102.703C191.136 102.034 191.412 101.393 191.904 100.919C192.396 100.446 193.063 100.18 193.758 100.179H211.042C211.738 100.18 212.404 100.446 212.896 100.919C213.388 101.393 213.665 102.034 213.666 102.703V119.331C213.665 120 213.388 120.641 212.896 121.115C212.404 121.588 211.738 121.854 211.042 121.855Z" fill="#E17C1E"/>
<path d="M291.516 139.524H193.368C192.836 139.524 192.326 139.321 191.95 138.959C191.573 138.597 191.362 138.106 191.362 137.594C191.362 137.083 191.573 136.592 191.95 136.23C192.326 135.868 192.836 135.664 193.368 135.664H291.516C292.048 135.664 292.558 135.868 292.934 136.23C293.311 136.592 293.522 137.083 293.522 137.594C293.522 138.106 293.311 138.597 292.934 138.959C292.558 139.321 292.048 139.524 291.516 139.524Z" fill="#CCCCCC"/>
<path d="M291.582 130.171H193.434C192.902 130.171 192.392 129.968 192.015 129.606C191.639 129.244 191.428 128.753 191.428 128.241C191.428 127.73 191.639 127.239 192.015 126.877C192.392 126.515 192.902 126.311 193.434 126.311H291.582C292.114 126.311 292.624 126.515 293 126.877C293.376 127.239 293.588 127.73 293.588 128.241C293.588 128.753 293.376 129.244 293 129.606C292.624 129.968 292.114 130.171 291.582 130.171Z" fill="#CCCCCC"/>
<path d="M243.125 117.401H228.619C228.087 117.401 227.577 117.197 227.2 116.835C226.824 116.474 226.613 115.983 226.613 115.471C226.613 114.959 226.824 114.468 227.2 114.106C227.577 113.744 228.087 113.541 228.619 113.541H243.125C243.657 113.541 244.167 113.744 244.544 114.106C244.92 114.468 245.131 114.959 245.131 115.471C245.131 115.983 244.92 116.474 244.544 116.835C244.167 117.197 243.657 117.401 243.125 117.401Z" fill="#CCCCCC"/>
<path d="M291.582 107.902H228.619C228.087 107.902 227.577 107.699 227.2 107.337C226.824 106.975 226.613 106.484 226.613 105.972C226.613 105.46 226.824 104.969 227.2 104.607C227.577 104.245 228.087 104.042 228.619 104.042H291.582C292.114 104.042 292.624 104.245 293 104.607C293.377 104.969 293.588 105.46 293.588 105.972C293.588 106.484 293.377 106.975 293 107.337C292.624 107.699 292.114 107.902 291.582 107.902Z" fill="#CCCCCC"/>
<path d="M240.656 149.026H193.368C192.836 149.026 192.326 148.823 191.95 148.461C191.573 148.099 191.362 147.608 191.362 147.096C191.362 146.584 191.573 146.093 191.95 145.731C192.326 145.369 192.836 145.166 193.368 145.166H240.656C241.188 145.166 241.698 145.369 242.075 145.731C242.451 146.093 242.662 146.584 242.662 147.096C242.662 147.608 242.451 148.099 242.075 148.461C241.698 148.823 241.188 149.026 240.656 149.026Z" fill="#CCCCCC"/>
</g>
<defs>
<clipPath id="clip0_1_269">
<rect width="300" height="190" fill="white"/>
</clipPath>
</defs>
</svg>
