<svg width="281" height="190" viewBox="0 0 281 190" fill="none" xmlns="http://www.w3.org/2000/svg">
<path d="M160.003 92.9043C166.326 92.9043 171.452 88.4415 171.452 82.9364C171.452 77.4312 166.326 72.9684 160.003 72.9684C153.68 72.9684 148.554 77.4312 148.554 82.9364C148.554 88.4415 153.68 92.9043 160.003 92.9043Z" fill="#E6E6E6"/>
<path d="M188.062 95.7457L176.098 85.329C177.015 84.0871 177.636 82.6975 177.925 81.2426C178.214 79.7878 178.165 78.2972 177.78 76.8592C177.395 75.4212 176.683 74.0651 175.685 72.8712C174.687 71.6773 173.425 70.67 171.971 69.9087C169.235 68.4856 165.985 68.0091 162.864 68.5735C159.744 69.1378 156.981 70.702 155.122 72.9561C153.411 75.0441 152.59 77.5857 152.798 80.1439C153.007 82.7021 154.233 85.1171 156.265 86.9738C158.297 88.8304 161.009 90.0126 163.934 90.3172C166.859 90.6217 169.814 90.0296 172.292 88.6427L184.256 99.0594C184.761 99.4984 185.445 99.7449 186.159 99.7447C186.872 99.7445 187.556 99.4977 188.061 99.0584C188.565 98.6191 188.849 98.0234 188.849 97.4022C188.849 96.781 188.566 96.1852 188.062 95.7457ZM171.845 84.9402C170.362 86.2309 168.412 87.0342 166.325 87.2131C164.239 87.3921 162.146 86.9356 160.403 85.9215C158.659 84.9074 157.374 83.3984 156.765 81.6517C156.157 79.905 156.263 78.0285 157.065 76.3421C157.867 74.6557 159.316 73.2637 161.165 72.4032C163.014 71.5428 165.149 71.2671 167.205 71.6232C169.261 71.9793 171.112 72.9451 172.442 74.3561C173.772 75.7671 174.499 77.536 174.499 79.3614C174.501 80.3976 174.267 81.424 173.811 82.3814C173.356 83.3388 172.688 84.2084 171.845 84.9402Z" fill="#3F3D56"/>
<path d="M274.789 111.111C305.387 140.571 216.69 183.028 145.022 183.028C73.3529 183.028 23.7693 150.131 15.2539 111.111C-5.39314 16.4993 191.171 -43.6353 145.022 39.194C77.753 159.927 250.693 87.9102 274.789 111.111Z" fill="#E6E6E6"/>
<path d="M261.061 118.083C291.658 147.543 202.962 190 131.293 190C59.6245 190 10.0409 157.104 1.52548 118.083C-19.1215 23.4716 177.443 -36.663 131.293 46.1663C64.0246 166.9 236.965 94.8826 261.061 118.083Z" fill="#3F3D56"/>
<path d="M42.7852 49.0119C21.3153 48.1889 4.66844 44.1567 4.88714 39.8323C5.01826 37.2396 11.0945 35.1548 21.5577 34.1126C21.5951 34.1086 21.6331 34.1111 21.6694 34.12C21.7057 34.1289 21.7397 34.1439 21.7693 34.1643C21.7989 34.1846 21.8236 34.2099 21.8419 34.2386C21.8603 34.2673 21.8719 34.2988 21.8762 34.3315C21.8805 34.3641 21.8773 34.3971 21.8669 34.4287C21.8565 34.4603 21.8389 34.4897 21.8154 34.5153C21.7918 34.541 21.7627 34.5623 21.7296 34.5781C21.6965 34.5939 21.6602 34.6038 21.6227 34.6073C11.7663 35.5892 5.57262 37.5997 5.4586 39.8542C5.26083 43.7648 22.3658 47.7307 42.8104 48.5144C63.2549 49.2981 80.6941 46.6565 80.8918 42.7459C81.0063 40.4819 75.0009 37.9983 65.2192 36.2645C65.1823 36.258 65.1472 36.2453 65.116 36.2271C65.0847 36.2088 65.0579 36.1853 65.0371 36.158C65.0163 36.1307 65.0019 36.1001 64.9947 36.068C64.9875 36.0358 64.9877 36.0027 64.9952 35.9706C65.0027 35.9385 65.0174 35.908 65.0385 35.8809C65.0595 35.8537 65.0865 35.8305 65.118 35.8124C65.1494 35.7944 65.1846 35.7819 65.2215 35.7758C65.2585 35.7696 65.2965 35.7698 65.3333 35.7764C75.7158 37.6168 81.5949 40.165 81.4633 42.7678C81.2446 47.0923 64.2551 49.835 42.7852 49.0119Z" fill="#E17C1E"/>
<path d="M23.7167 49.7362C25.5128 52.7068 28.1734 55.2147 31.4323 57.0089C34.6913 58.8031 38.4342 59.8207 42.2868 59.9599C46.1393 60.0992 49.9662 59.3551 53.3847 57.8022C56.8032 56.2493 59.6934 53.942 61.7661 51.1112C49.0636 51.2603 36.3613 50.8012 23.7167 49.7362Z" fill="#E17C1E"/>
<path d="M64.1411 45.8732C65.222 43.0504 65.5335 40.0472 65.0508 37.1014C64.5682 34.1557 63.3046 31.3481 61.3602 28.901C59.4158 26.4539 56.8439 24.4344 53.8481 23.0024C50.8522 21.5703 47.5146 20.765 44.0995 20.6502C40.6844 20.5354 37.2854 21.1142 34.1716 22.3408C31.0578 23.5675 28.3147 25.4083 26.1593 27.7175C24.004 30.0268 22.4955 32.7411 21.7534 35.6457C21.0112 38.5503 21.0558 41.5654 21.8834 44.4524C35.8395 46.5151 50.0439 46.9927 64.1411 45.8732Z" fill="#E17C1E"/>
<path d="M48.2878 33.0192C49.7094 33.0192 50.8619 32.0159 50.8619 30.7781C50.8619 29.5404 49.7094 28.537 48.2878 28.537C46.8662 28.537 45.7137 29.5404 45.7137 30.7781C45.7137 32.0159 46.8662 33.0192 48.2878 33.0192Z" fill="white"/>
<path d="M35.0399 41.7323C37.4093 41.7323 39.33 40.06 39.33 37.9971C39.33 35.9342 37.4093 34.2619 35.0399 34.2619C32.6705 34.2619 30.7498 35.9342 30.7498 37.9971C30.7498 40.06 32.6705 41.7323 35.0399 41.7323Z" fill="white"/>
<path d="M99.7898 38.0735C101.369 38.0735 102.65 36.9586 102.65 35.5834C102.65 34.2082 101.369 33.0934 99.7898 33.0934C98.2103 33.0934 96.9298 34.2082 96.9298 35.5834C96.9298 36.9586 98.2103 38.0735 99.7898 38.0735Z" fill="#E17C1E"/>
<path d="M35.1519 114.271C36.0996 114.271 36.8679 113.602 36.8679 112.777C36.8679 111.952 36.0996 111.283 35.1519 111.283C34.2041 111.283 33.4358 111.952 33.4358 112.777C33.4358 113.602 34.2041 114.271 35.1519 114.271Z" fill="#E6E6E6"/>
<path d="M155.276 165.568C156.223 165.568 156.992 164.899 156.992 164.074C156.992 163.249 156.223 162.58 155.276 162.58C154.328 162.58 153.559 163.249 153.559 164.074C153.559 164.899 154.328 165.568 155.276 165.568Z" fill="#E6E6E6"/>
<path d="M43.4461 85.3859C43.9199 85.3859 44.3041 85.0514 44.3041 84.6388C44.3041 84.2263 43.9199 83.8918 43.4461 83.8918C42.9722 83.8918 42.588 84.2263 42.588 84.6388C42.588 85.0514 42.9722 85.3859 43.4461 85.3859Z" fill="#E6E6E6"/>
<path d="M114.376 141.165C114.85 141.165 115.234 140.83 115.234 140.418C115.234 140.005 114.85 139.671 114.376 139.671C113.902 139.671 113.518 140.005 113.518 140.418C113.518 140.83 113.902 141.165 114.376 141.165Z" fill="#E6E6E6"/>
<path d="M243.366 133.943C243.84 133.943 244.224 133.609 244.224 133.196C244.224 132.784 243.84 132.449 243.366 132.449C242.892 132.449 242.508 132.784 242.508 133.196C242.508 133.609 242.892 133.943 243.366 133.943Z" fill="#E6E6E6"/>
<path d="M203.039 156.105C203.513 156.105 203.897 155.771 203.897 155.358C203.897 154.946 203.513 154.611 203.039 154.611C202.565 154.611 202.181 154.946 202.181 155.358C202.181 155.771 202.565 156.105 203.039 156.105Z" fill="#E6E6E6"/>
<path d="M160.996 129.212C161.47 129.212 161.854 128.878 161.854 128.465C161.854 128.052 161.47 127.718 160.996 127.718C160.522 127.718 160.138 128.052 160.138 128.465C160.138 128.878 160.522 129.212 160.996 129.212Z" fill="#E6E6E6"/>
<path d="M106.654 55.5044C107.128 55.5044 107.512 55.17 107.512 54.7574C107.512 54.3448 107.128 54.0103 106.654 54.0103C106.18 54.0103 105.796 54.3448 105.796 54.7574C105.796 55.17 106.18 55.5044 106.654 55.5044Z" fill="#E6E6E6"/>
<path d="M113.518 18.6506C113.992 18.6506 114.376 18.3161 114.376 17.9035C114.376 17.4909 113.992 17.1565 113.518 17.1565C113.044 17.1565 112.66 17.4909 112.66 17.9035C112.66 18.3161 113.044 18.6506 113.518 18.6506Z" fill="#E6E6E6"/>
<path d="M109.514 173.785C109.988 173.785 110.372 173.451 110.372 173.038C110.372 172.626 109.988 172.291 109.514 172.291C109.04 172.291 108.656 172.626 108.656 173.038C108.656 173.451 109.04 173.785 109.514 173.785Z" fill="#E6E6E6"/>
<path d="M67.1848 158.097C67.6587 158.097 68.0429 157.763 68.0429 157.35C68.0429 156.938 67.6587 156.603 67.1848 156.603C66.7109 156.603 66.3268 156.938 66.3268 157.35C66.3268 157.763 66.7109 158.097 67.1848 158.097Z" fill="#E6E6E6"/>
<path d="M201.323 131.204C201.797 131.204 202.181 130.87 202.181 130.457C202.181 130.045 201.797 129.71 201.323 129.71C200.849 129.71 200.465 130.045 200.465 130.457C200.465 130.87 200.849 131.204 201.323 131.204Z" fill="#E6E6E6"/>
<path d="M42.4361 58.2188C43.8578 58.2188 45.0102 57.2154 45.0102 55.9777C45.0102 54.74 43.8578 53.7366 42.4361 53.7366C41.0145 53.7366 39.8621 54.74 39.8621 55.9777C39.8621 57.2154 41.0145 58.2188 42.4361 58.2188Z" fill="white"/>
<path d="M100.648 90.3662C100.648 97.0597 88.7615 112.657 85.2878 117.072C85.183 117.205 85.0424 117.315 84.8782 117.39C84.7139 117.465 84.531 117.505 84.3453 117.505C84.1596 117.505 83.9767 117.465 83.8125 117.39C83.6483 117.315 83.5077 117.205 83.4028 117.072C79.9292 112.657 68.0428 97.0597 68.0428 90.3662C68.0428 88.5022 68.4645 86.6565 69.2838 84.9345C70.1031 83.2124 71.3039 81.6477 72.8177 80.3297C74.3316 79.0117 76.1287 77.9662 78.1066 77.2529C80.0846 76.5396 82.2045 76.1725 84.3453 76.1725C86.4862 76.1725 88.6061 76.5396 90.584 77.2529C92.562 77.9662 94.3591 79.0117 95.873 80.3297C97.3868 81.6477 98.5876 83.2124 99.4069 84.9345C100.226 86.6565 100.648 88.5022 100.648 90.3662Z" fill="white"/>
<path d="M84.3454 96.5915C88.9262 96.5915 92.6397 93.3584 92.6397 89.3701C92.6397 85.3819 88.9262 82.1487 84.3454 82.1487C79.7646 82.1487 76.0511 85.3819 76.0511 89.3701C76.0511 93.3584 79.7646 96.5915 84.3454 96.5915Z" fill="#E17C1E"/>
<path d="M84.2024 125.228C89.494 125.228 93.7837 124.503 93.7837 123.609C93.7837 122.715 89.494 121.991 84.2024 121.991C78.9108 121.991 74.6211 122.715 74.6211 123.609C74.6211 124.503 78.9108 125.228 84.2024 125.228Z" fill="white"/>
<path d="M233.627 79.1659C233.555 79.2884 233.493 79.4157 233.444 79.5465L219.777 82.8526L217.315 80.7543L213.192 83.5764L217.137 87.66C217.456 87.9899 217.889 88.2208 218.371 88.3182C218.853 88.4156 219.359 88.3742 219.812 88.2001L234.575 82.5264C235.075 82.829 235.67 82.9918 236.28 82.9929C236.89 82.9941 237.485 82.8336 237.988 82.5329C238.49 82.2321 238.875 81.8054 239.092 81.3093C239.309 80.8132 239.348 80.2714 239.202 79.7559C239.057 79.2404 238.735 78.7757 238.279 78.4234C237.822 78.0712 237.254 77.8483 236.649 77.7842C236.044 77.7202 235.43 77.8181 234.891 78.0649C234.351 78.3117 233.91 78.6957 233.627 79.1659Z" fill="#FFB8B8"/>
<path d="M219.296 83.0464L214.166 86.5225C214.02 86.6214 213.852 86.6918 213.672 86.7288C213.492 86.7658 213.305 86.7686 213.123 86.737C212.942 86.7054 212.771 86.6401 212.621 86.5457C212.471 86.4512 212.346 86.3297 212.255 86.1895L209.067 81.2772C208.49 80.6242 208.234 79.7985 208.355 78.9813C208.476 78.1641 208.964 77.4221 209.713 76.9179C210.461 76.4137 211.409 76.1886 212.348 76.2918C213.287 76.3951 214.14 76.8183 214.721 77.4687L219.394 81.3517C219.528 81.463 219.633 81.598 219.701 81.7476C219.77 81.8972 219.8 82.0579 219.791 82.2187C219.782 82.3795 219.732 82.5367 219.647 82.6795C219.562 82.8223 219.442 82.9475 219.296 83.0464Z" fill="#E17C1E"/>
<path d="M234.938 77.5217L240.14 79.5594C240.357 79.6447 240.527 79.8019 240.612 79.9963C240.697 80.1908 240.689 80.4066 240.591 80.5962L239.976 81.7881C240.048 81.8167 240.105 81.8691 240.133 81.9339C240.161 81.9986 240.159 82.0705 240.126 82.1337L239.88 82.6104C239.847 82.6735 239.787 82.7227 239.712 82.7473C239.638 82.7718 239.555 82.7698 239.483 82.7416L239.236 83.2183C239.309 83.2469 239.365 83.2993 239.394 83.3641C239.422 83.4288 239.42 83.5007 239.387 83.5639L239.141 84.0407C239.108 84.1038 239.048 84.153 238.973 84.1775C238.899 84.2021 238.816 84.2 238.744 84.1718L235.418 90.6078C235.32 90.7975 235.139 90.9455 234.916 91.0192C234.693 91.093 234.445 91.0865 234.227 91.0012L229.025 88.9636C228.807 88.8782 228.637 88.7211 228.553 88.5266C228.468 88.3322 228.475 88.1164 228.573 87.9267L233.747 77.9151C233.845 77.7255 234.025 77.5775 234.249 77.5037C234.472 77.4299 234.72 77.4364 234.938 77.5217Z" fill="#3F3D56"/>
<path d="M229.97 88.3294L234.143 89.9657C234.352 90.0471 234.589 90.0532 234.804 89.9827C235.018 89.9122 235.192 89.7708 235.287 89.5893L237.214 85.8567L237.883 84.5629L239.628 81.1857C239.721 81.004 239.728 80.7976 239.647 80.6115C239.566 80.4254 239.404 80.2748 239.195 80.1925L237.883 79.6776L235.019 78.5562C234.81 78.4749 234.573 78.4692 234.359 78.5402C234.145 78.6113 233.972 78.7534 233.879 78.9352L232.191 82.1999L230.27 85.9168L229.537 87.3362C229.444 87.5178 229.437 87.7244 229.518 87.9105C229.599 88.0967 229.761 88.2473 229.97 88.3294Z" fill="#F2F2F2"/>
<path d="M221.25 134.577L224.756 134.577L226.425 122.801L221.249 122.802L221.25 134.577Z" fill="#FFB8B8"/>
<path d="M220.355 133.58L227.261 133.58C227.839 133.58 228.411 133.679 228.945 133.872C229.479 134.064 229.964 134.346 230.373 134.702C230.781 135.058 231.106 135.48 231.327 135.945C231.548 136.41 231.662 136.908 231.662 137.411V137.536L220.356 137.536L220.355 133.58Z" fill="#2F2E41"/>
<path d="M230.402 133.83L233.909 133.83L235.577 122.054L230.402 122.055L230.402 133.83Z" fill="#FFB8B8"/>
<path d="M229.508 132.833L236.413 132.833C236.991 132.833 237.564 132.932 238.098 133.125C238.631 133.317 239.117 133.599 239.525 133.955C239.934 134.311 240.258 134.733 240.479 135.198C240.7 135.663 240.814 136.161 240.814 136.664V136.789L229.508 136.789L229.508 132.833Z" fill="#2F2E41"/>
<path d="M205.522 106.945C206.269 108.873 207.686 110.552 209.577 111.748C211.467 112.944 213.738 113.599 216.075 113.621L216.253 113.624C218.063 113.669 220.188 113.161 222.273 112.431C226.392 110.989 230.347 108.681 231.397 108.046L229.618 122.934L228.897 128.971C228.879 129.127 228.899 129.284 228.955 129.434C229.011 129.583 229.102 129.72 229.223 129.837C229.343 129.953 229.491 130.047 229.655 130.111C229.82 130.175 229.998 130.208 230.178 130.208H234.62C234.905 130.208 235.182 130.126 235.407 129.975C235.633 129.823 235.795 129.611 235.867 129.371L243.2 105.055C243.42 104.328 243.438 103.565 243.252 102.83C243.066 102.095 242.682 101.409 242.131 100.829C241.58 100.249 240.878 99.7917 240.084 99.4948C239.29 99.1978 238.426 99.0699 237.563 99.1214L222.33 100.03L223.394 96.325L209.797 95.5381L209.757 95.563C209.431 95.7697 209.114 95.9864 208.811 96.213C208.053 96.7711 207.381 97.4122 206.812 98.1204C205.793 99.3911 205.144 100.858 204.919 102.395C204.695 103.932 204.901 105.493 205.522 106.945Z" fill="#2F2E41"/>
<path d="M205.522 106.945C206.269 108.873 207.686 110.552 209.577 111.748C211.467 112.944 213.738 113.599 216.075 113.621C218.31 112.637 220.467 111.523 222.531 110.287L222.273 112.431L220.031 131.212C220.013 131.368 220.032 131.526 220.088 131.675C220.144 131.824 220.236 131.961 220.356 132.078C220.477 132.194 220.625 132.288 220.789 132.352C220.954 132.416 221.132 132.449 221.312 132.449H225.754C226.039 132.449 226.316 132.367 226.541 132.216C226.767 132.065 226.928 131.852 227.001 131.613L229.618 122.935L234.334 107.297C234.554 106.569 234.572 105.806 234.386 105.071C234.2 104.336 233.815 103.65 233.264 103.07C232.714 102.49 232.012 102.033 231.218 101.736C230.423 101.439 229.559 101.311 228.697 101.363L213.464 102.271L214.528 98.5661L206.811 98.1204C205.793 99.3911 205.144 100.858 204.919 102.395C204.695 103.932 204.901 105.493 205.522 106.945Z" fill="#2F2E41"/>
<path d="M208.791 97.072L208.689 97.0613L206.317 86.9053C206.296 86.8171 204.357 78.0571 210.303 73.4775L210.406 72.8507C210.433 72.6903 210.499 72.5368 210.6 72.4008C210.701 72.2648 210.835 72.1495 210.992 72.0629C211.15 71.9764 211.327 71.9205 211.511 71.8993C211.696 71.878 211.883 71.8919 212.061 71.9399L217.663 73.4525C217.98 73.5376 218.247 73.7261 218.408 73.9787C218.569 74.2314 218.611 74.5284 218.526 74.8076L217.982 76.6109C218.737 77.3829 227.624 86.6989 224.528 93.8763L223.142 98.5955L208.791 97.072Z" fill="#E17C1E"/>
<path d="M232.05 89.1457C231.916 89.2191 231.789 89.3015 231.669 89.3923L217.97 86.1905L217.075 83.2935L211.876 83.8988L212.889 89.1615C212.971 89.5867 213.209 89.9773 213.568 90.2746C213.926 90.572 214.386 90.7601 214.878 90.8106L230.903 92.4588C231.158 92.9412 231.575 93.3446 232.099 93.6154C232.624 93.8863 233.23 94.0117 233.839 93.9751C234.447 93.9384 235.028 93.7414 235.504 93.4103C235.981 93.0792 236.33 92.6296 236.506 92.1213C236.682 91.6131 236.676 91.0703 236.489 90.5651C236.302 90.0599 235.942 89.6163 235.458 89.2932C234.975 88.9702 234.389 88.7831 233.78 88.7567C233.171 88.7304 232.568 88.866 232.05 89.1457Z" fill="#FFB8B8"/>
<path d="M217.443 86.1442L210.996 86.8672C210.812 86.8878 210.626 86.8737 210.449 86.8259C210.273 86.7781 210.11 86.6978 209.972 86.5903C209.834 86.4828 209.725 86.3507 209.651 86.2031C209.577 86.0554 209.541 85.8957 209.544 85.7347L209.667 80.0934C209.552 79.2757 209.813 78.4514 210.395 77.8013C210.976 77.1512 211.83 76.7284 212.769 76.6256C213.708 76.5227 214.655 76.7482 215.403 77.2526C216.152 77.757 216.639 78.4992 216.76 79.3164L218.517 84.7285C218.567 84.8834 218.578 85.046 218.55 85.2051C218.522 85.3642 218.454 85.5161 218.352 85.6505C218.25 85.7849 218.116 85.8985 217.959 85.9837C217.802 86.0689 217.626 86.1237 217.443 86.1442Z" fill="#E17C1E"/>
<path d="M215.628 70.5613C219.508 70.5613 222.653 67.8231 222.653 64.4453C222.653 61.0676 219.508 58.3293 215.628 58.3293C211.748 58.3293 208.603 61.0676 208.603 64.4453C208.603 67.8231 211.748 70.5613 215.628 70.5613Z" fill="#FFB8B8"/>
<path d="M215.258 64.9561L214.379 63.5618C212.713 69.4714 215.656 74.3622 215.656 74.3622L204.235 69.7303L204.343 68.0869L203.213 69.2034L201.589 68.4243L201.375 67.3584L200.149 67.6228L204.623 60.554C208.966 53.8273 215.279 56.3955 215.279 56.3955C225.322 55.9798 224.095 64.6068 224.095 64.6068L215.258 64.9561Z" fill="#2F2E41"/>
<path d="M135.294 110.533C136.913 109.629 134.944 104.438 130.894 98.9389C126.845 93.4394 122.249 89.7141 120.63 90.618C119.01 91.522 120.98 96.713 125.029 102.212C129.078 107.712 133.674 111.437 135.294 110.533Z" fill="#3F3D56"/>
</svg>
