<svg width="30" height="30" viewBox="0 0 30 30" fill="none" xmlns="http://www.w3.org/2000/svg">
<path d="M19.375 17.5H18.3875L18.0375 17.1625C18.8187 16.255 19.3896 15.186 19.7094 14.032C20.0293 12.8781 20.0901 11.6677 19.8875 10.4875C19.3 7.0125 16.4 4.2375 12.9 3.8125C11.6695 3.65683 10.4197 3.78471 9.24628 4.18636C8.07283 4.58801 7.0068 5.25277 6.12979 6.12979C5.25277 7.0068 4.58801 8.07283 4.18636 9.24628C3.78471 10.4197 3.65683 11.6695 3.8125 12.9C4.2375 16.4 7.0125 19.3 10.4875 19.8875C11.6677 20.0901 12.8781 20.0293 14.032 19.7094C15.186 19.3896 16.255 18.8187 17.1625 18.0375L17.5 18.3875V19.375L22.8125 24.6875C23.325 25.2 24.1625 25.2 24.675 24.6875C25.1875 24.175 25.1875 23.3375 24.675 22.825L19.375 17.5ZM11.875 17.5C8.7625 17.5 6.25 14.9875 6.25 11.875C6.25 8.7625 8.7625 6.25 11.875 6.25C14.9875 6.25 17.5 8.7625 17.5 11.875C17.5 14.9875 14.9875 17.5 11.875 17.5Z" fill="#939393"/>
</svg>
