<svg width="28" height="28" viewBox="0 0 28 28" fill="none" xmlns="http://www.w3.org/2000/svg">
<path fill-rule="evenodd" clip-rule="evenodd" d="M13.7212 24.3294C11.1888 22.7709 8.83295 20.9366 6.69583 18.8594C5.19333 17.3634 4.0495 15.5397 3.35194 13.528C2.09666 9.62536 3.56291 5.15763 7.6663 3.83544C9.82287 3.14117 12.1782 3.53798 13.9954 4.90172C15.8134 3.53964 18.1679 3.14297 20.3246 3.83544C24.428 5.15763 25.9048 9.62536 24.6495 13.528C23.9519 15.5397 22.8081 17.3634 21.3056 18.8594C19.1685 20.9366 16.8126 22.7709 14.2802 24.3294L14.006 24.5L13.7212 24.3294Z" stroke="#E17C1E" stroke-width="1.5" stroke-linecap="round" stroke-linejoin="round"/>
<path d="M18.3625 8.22852C19.6054 8.62553 20.4885 9.74133 20.5988 11.0542" stroke="#E17C1E" stroke-width="1.5" stroke-linecap="round" stroke-linejoin="round"/>
</svg>
